<svg width="1024" height="1024" viewBox="0 0 1024 1024" fill="none" xmlns="http://www.w3.org/2000/svg">
<path d="M392.395 353.089C370.983 359.352 357.308 377.865 356.617 401.11V402.362L338.659 558.119C385.35 495.482 461.74 393.594 525.422 313.14L392.395 353.228V353.089ZM553.465 304.232C553.465 304.232 553.188 304.511 553.05 304.65C553.05 304.65 553.05 304.51 553.327 304.232H553.465ZM192.785 647.898L130.207 655.972C116.532 657.642 106.033 666.828 102.58 679.912L15 1013L345.566 924.752C358.275 921.133 367.392 910.555 369.05 896.914L377.061 833.999L125.925 900.95L192.508 648.038L192.785 647.898ZM297.079 634.258L226.628 643.444L170.682 855.852L381.482 799.618L390.461 728.63L263.097 762.453L296.941 634.258H297.079ZM622.258 668.777C645.465 668.22 663.561 654.44 669.639 632.865L709.562 498.684C627.093 564.94 525.561 642.191 466.299 686.733L622.258 668.777ZM1006.01 18.1914C1005.73 16.7995 1005.18 15.9641 1004.9 15.2681C1004.35 14.9897 1003.52 14.7112 1002.28 14.2936C969.815 4.55017 868.145 12.0671 760.811 97.5314C726.415 125.091 666.601 191.068 583.027 293.514C509.951 383.154 333.272 620.478 333.272 620.478L316.142 686.176L839.274 158.915C845.628 152.512 855.85 152.512 862.205 158.915C868.559 165.318 868.559 175.618 862.205 182.021L339.073 709.143L402.064 693.275C402.064 693.275 627.369 523.878 728.763 440.084C830.848 355.594 896.187 295.324 923.125 260.943C1007.94 152.93 1015.4 50.623 1005.73 17.9128L1006.01 18.1914Z" fill="url(#paint0_linear_96_6)"/>
<defs>
<linearGradient id="paint0_linear_96_6" x1="1009" y1="11" x2="7.03219" y2="1004.97" gradientUnits="userSpaceOnUse">
<stop stop-color="#00EEFA"/>
<stop offset="0.45" stop-color="#0096FF"/>
<stop offset="1" stop-color="#AD98F6"/>
</linearGradient>
</defs>
</svg>
